<svg width="1080" height="644" viewBox="0 0 1080 644" fill="none" xmlns="http://www.w3.org/2000/svg">
    <rect width="1080" height="644" fill="white" />
    <g clip-path="url(#clip0_1092_101)">
        <path
            d="M833.907 418.795H780.474C767.381 418.795 756.411 409.884 756.411 398.597C756.411 392.953 759.242 387.903 763.489 384.339C767.735 380.775 773.751 378.398 780.474 378.398H788.259C794.982 378.398 800.998 376.022 805.244 372.458C809.491 368.893 812.322 363.844 812.322 358.2C812.322 347.21 801.706 338.002 788.259 338.002H625.056C620.792 338.002 618.052 332.761 618.052 328.497C618.052 317.804 607.79 309.19 595.051 309.19H534.317C532.794 309.17 531.34 308.551 530.27 307.467C529.2 306.383 528.6 304.921 528.6 303.398C528.6 301.874 529.2 300.412 530.27 299.328C531.34 298.244 532.794 297.625 534.317 297.605H767.027C777.289 297.605 786.844 294.041 793.567 288.397C800.29 282.754 804.537 274.734 804.537 266.12C804.537 248.595 787.551 234.634 767.027 234.634H646.836C627.977 234.634 609.309 220.079 590.451 220.079H523.346C513.503 220.079 505.524 212.1 505.524 202.257C505.524 192.415 513.503 184.435 523.346 184.435H673.608C680.685 184.435 687.409 182.059 692.009 178.198C696.609 174.336 699.44 168.99 699.44 162.752C699.44 150.871 687.762 141.068 673.608 141.068H327.178C320.1 141.068 313.377 143.445 308.777 147.306C304.177 151.168 301.346 156.514 301.346 162.752C301.346 174.633 313.023 184.435 327.178 184.435H336.024C347.702 184.435 357.61 192.455 357.61 202.554C357.61 207.604 355.133 212.06 351.24 215.327C347.348 218.594 342.04 220.673 336.024 220.673H293.207C285.776 220.673 278.699 223.347 273.745 227.505C268.791 231.664 265.606 237.307 265.606 243.842C265.606 256.615 277.991 266.714 292.853 266.714H336.378C350.533 266.714 362.21 276.516 362.21 288.397C362.21 294.338 359.379 299.684 354.779 303.546C350.179 307.407 343.809 309.784 336.732 309.784H297.807C291.438 309.784 285.776 311.863 281.53 315.427C277.283 318.992 274.806 323.744 274.806 329.091C274.806 339.784 285.068 348.398 297.807 348.398H329.301C347.348 348.398 361.856 360.576 361.856 375.725C361.856 383.151 358.318 390.28 352.302 395.032C346.286 400.082 338.147 403.052 329.301 403.052H285.422C276.576 403.052 268.437 406.023 262.775 411.072C256.759 415.825 253.221 422.656 253.221 430.082C253.221 444.934 267.729 457.112 285.422 457.112H420.912C435.875 457.112 450.574 465.429 465.537 465.429H490.214C499.646 465.429 507.293 473.076 507.293 482.509C507.293 491.941 499.646 499.588 490.214 499.588H430.151C422.366 499.588 415.643 502.261 410.689 506.42C405.735 510.578 402.55 516.519 402.55 522.757C402.55 535.529 414.935 545.925 430.151 545.925H798.167C805.952 545.925 812.675 543.252 817.629 539.094C822.583 534.935 825.768 528.994 825.768 522.757C825.768 509.984 813.383 499.588 798.167 499.588H787.197C775.874 499.588 767.027 491.865 767.027 482.657C767.027 477.905 769.15 473.746 773.043 470.776C776.582 467.806 781.889 465.726 787.551 465.726H833.907C841.692 465.726 848.415 463.053 853.369 458.895C858.324 454.736 861.508 448.795 861.508 442.558C861.508 429.191 849.123 418.795 833.907 418.795Z"
            fill="url(#paint0_linear_1092_101)" />
        <path
            d="M875.365 513.127C862.398 519.56 845.189 511.289 845.189 511.289C845.189 511.289 849.013 492.594 861.987 486.171C874.953 479.739 892.156 488 892.156 488C892.156 488 888.331 506.695 875.365 513.127Z"
            fill="url(#paint1_linear_1092_101)" />
        <path
            d="M171.89 393.665C190.824 405.013 217.988 394.523 217.988 394.523C217.988 394.523 214.436 365.638 195.491 354.303C176.557 342.955 149.404 353.432 149.404 353.432C149.404 353.432 152.956 382.317 171.89 393.665Z"
            fill="url(#paint2_linear_1092_101)" />
        <path
            d="M730.334 181.985C725.47 181.985 721.528 185.928 721.528 190.791C721.528 195.654 725.47 199.597 730.334 199.597C735.197 199.597 739.14 195.654 739.14 190.791C739.14 185.928 735.197 181.985 730.334 181.985Z"
            fill="#FC4706" />
        <path
            d="M713.324 526.55C704.177 526.55 696.763 533.964 696.763 543.111C696.763 552.257 704.177 559.672 713.324 559.672C722.47 559.672 729.885 552.257 729.885 543.111C729.885 533.964 722.47 526.55 713.324 526.55Z"
            fill="#FC4706" />
        <path
            d="M301.816 527C294.556 527 288.67 521.114 288.67 513.854C288.67 506.594 294.556 500.708 301.816 500.708C309.076 500.708 314.962 506.594 314.962 513.854C314.962 521.114 309.076 527 301.816 527Z"
            fill="#FC4706" />
        <path
            d="M931.771 301.102C926.91 301.102 922.969 297.161 922.969 292.3C922.969 287.439 926.91 283.498 931.771 283.498C936.632 283.498 940.573 287.439 940.573 292.3C940.573 297.161 936.632 301.102 931.771 301.102Z"
            fill="#FC4706" />
        <path
            d="M200.57 517.248C191.542 517.248 184.224 509.93 184.224 500.902C184.224 491.874 191.542 484.556 200.57 484.556C209.598 484.556 216.916 491.874 216.916 500.902C216.916 509.93 209.598 517.248 200.57 517.248Z"
            fill="#E1E4E5" />
        <path
            d="M839.492 407.145C832.621 407.145 827.051 401.575 827.051 394.704C827.051 387.833 832.621 382.263 839.492 382.263C846.363 382.263 851.933 387.833 851.933 394.704C851.933 401.575 846.363 407.145 839.492 407.145Z"
            fill="#E1E4E5" />
        <path
            d="M778.083 117.427C769.447 117.427 762.446 110.426 762.446 101.79C762.446 93.154 769.447 86.1531 778.083 86.1531C786.719 86.1531 793.72 93.154 793.72 101.79C793.72 110.426 786.719 117.427 778.083 117.427Z"
            fill="#E1E4E5" />
        <path
            d="M268.501 172.447C270.276 179.073 266.344 185.883 259.719 187.659C253.093 189.434 246.283 185.502 244.508 178.876C242.732 172.251 246.664 165.44 253.29 163.665C259.915 161.89 266.726 165.822 268.501 172.447Z"
            fill="#E1E4E5" />
        <path
            d="M385.95 117.046C376.824 117.046 369.427 109.648 369.427 100.523C369.427 91.3976 376.824 84 385.95 84C395.075 84 402.473 91.3976 402.473 100.523C402.473 109.648 395.075 117.046 385.95 117.046Z"
            fill="#E1E4E5" />
        <path
            d="M717.01 428.442C709.99 428.442 704.3 423.89 704.3 418.274C704.3 412.658 709.99 408.106 717.01 408.106C724.029 408.106 729.72 412.658 729.72 418.274C729.72 423.89 724.029 428.442 717.01 428.442Z"
            fill="#E1E4E5" />
        <path
            d="M274.116 100.151H274.297C275.369 115.342 286.667 115.576 286.667 115.576C286.667 115.576 274.209 115.82 274.209 133.372C274.209 115.82 261.751 115.576 261.751 115.576C261.751 115.576 273.044 115.341 274.116 100.151ZM372.871 474H373.045C374.075 489.146 384.921 489.379 384.921 489.379C384.921 489.379 372.961 489.621 372.961 507.122C372.961 489.621 361 489.379 361 489.379C361 489.379 371.842 489.146 372.871 474Z"
            fill="#E1E4E5" />
        <path d="M243.562 343.384H833.396" stroke="#E1E4E5" stroke-width="11" stroke-linecap="round" />
        <path
            d="M642.926 234.122C642.926 177.378 596.925 131.378 540.182 131.378C483.438 131.378 437.438 177.378 437.438 234.122C437.438 290.866 483.438 336.866 540.182 336.866C596.925 336.866 642.926 290.866 642.926 234.122Z"
            fill="#FC4706" />
        <mask id="mask0_1092_101" style="mask-type:alpha" maskUnits="userSpaceOnUse" x="435" y="131"
            width="206" height="206">
            <path
                d="M640.598 234.122C640.598 177.378 594.598 131.378 537.854 131.378C481.11 131.378 435.11 177.378 435.11 234.122C435.11 290.866 481.11 336.866 537.854 336.866C594.598 336.866 640.598 290.866 640.598 234.122Z"
                fill="#FC4706" />
        </mask>
        <g mask="url(#mask0_1092_101)">
            <g opacity="0.5">
                <path
                    d="M334.206 180.847C320.194 203.851 311.022 229.796 307.459 256.504C305.255 273.028 306.028 291.978 318.175 303.377C327.278 311.922 340.697 314.048 353.165 313.588C365.633 313.129 378.032 310.505 390.487 311.238C402.941 311.972 416.13 316.895 422.449 327.669C428.429 337.864 426.94 350.564 426.207 362.365C425.476 374.167 426.356 387.564 435.25 395.339C447.846 406.351 468.369 399.547 483.218 407.246C497.301 414.548 503.02 433.178 517.531 439.584C529.661 444.941 543.622 439.963 555.889 434.935C568.678 429.692 581.439 424.385 594.174 419.013"
                    stroke="white" stroke-width="1.149" />
                <path
                    d="M348.841 165.626C335.126 188.093 326.147 213.432 322.66 239.518C320.503 255.656 321.259 274.164 333.149 285.298C342.059 293.643 355.194 295.72 367.398 295.27C379.602 294.822 391.738 292.259 403.93 292.976C416.122 293.692 429.032 298.502 435.217 309.023C441.07 318.981 439.612 331.384 438.895 342.91C438.178 354.436 439.039 367.52 447.746 375.115C460.076 385.871 480.165 379.225 494.699 386.744C508.484 393.876 514.082 412.071 528.287 418.329C540.158 423.559 553.824 418.699 565.833 413.787C578.35 408.667 590.842 403.483 603.307 398.238"
                    stroke="white" stroke-width="1.149" />
                <path
                    d="M362.715 150.404C349.296 172.402 340.512 197.212 337.101 222.753C334.989 238.554 335.73 256.676 347.362 267.576C356.08 275.747 368.931 277.779 380.871 277.34C392.812 276.9 404.685 274.392 416.613 275.093C428.542 275.795 441.171 280.503 447.223 290.805C452.951 300.554 451.523 312.699 450.822 323.984C450.121 335.269 450.963 348.08 459.482 355.516C471.545 366.047 491.199 359.54 505.42 366.903C518.907 373.886 524.384 391.7 538.28 397.827C549.896 402.948 563.266 398.189 575.015 393.38C587.262 388.366 599.484 383.291 611.679 378.155"
                    stroke="white" stroke-width="1.149" />
                <path
                    d="M377.277 135.183C364.19 156.644 355.626 180.849 352.298 205.767C350.239 221.182 350.962 238.862 362.305 249.497C370.806 257.468 383.337 259.452 394.98 259.023C406.624 258.594 418.203 256.146 429.834 256.831C441.466 257.515 453.782 262.108 459.683 272.159C465.268 281.671 463.877 293.519 463.193 304.529C462.509 315.54 463.331 328.037 471.636 335.292C483.4 345.565 502.567 339.218 516.433 346.4C529.585 353.213 534.924 370.593 548.476 376.571C559.803 381.567 572.842 376.924 584.297 372.233C596.239 367.341 608.157 362.39 620.05 357.378"
                    stroke="white" stroke-width="1.149" />
                <path
                    d="M391.151 119.2C378.361 140.193 369.99 163.867 366.738 188.241C364.726 203.318 365.432 220.611 376.518 231.014C384.827 238.81 397.074 240.751 408.453 240.331C419.833 239.912 431.15 237.518 442.517 238.187C453.885 238.857 465.922 243.35 471.689 253.18C477.148 262.484 475.789 274.073 475.119 284.842C474.451 295.612 475.254 307.836 483.372 314.933C494.869 324.981 513.601 318.772 527.154 325.797C540.007 332.462 545.226 349.461 558.471 355.308C569.541 360.195 582.283 355.654 593.48 351.065C605.152 346.28 616.799 341.437 628.422 336.536"
                    stroke="white" stroke-width="1.149" />
                <path
                    d="M405.711 103.979C393.256 124.434 385.103 147.505 381.935 171.254C379.976 185.948 380.664 202.798 391.46 212.934C399.553 220.532 411.48 222.422 422.562 222.014C433.647 221.606 444.666 219.272 455.738 219.924C466.809 220.577 478.533 224.955 484.149 234.535C489.465 243.6 488.141 254.894 487.49 265.388C486.839 275.881 487.62 287.793 495.527 294.709C506.723 304.5 524.966 298.45 538.165 305.296C550.684 311.79 555.767 328.354 568.667 334.052C579.448 338.814 591.857 334.389 602.762 329.917C614.13 325.255 625.474 320.536 636.793 315.759"
                    stroke="white" stroke-width="1.149" />
                <path
                    d="M420.347 88.7571C408.188 108.677 400.229 131.142 397.137 154.268C395.225 168.576 395.896 184.984 406.436 194.856C414.335 202.253 425.978 204.094 436.797 203.697C447.616 203.298 458.374 201.027 469.182 201.662C479.989 202.298 491.434 206.561 496.917 215.889C502.106 224.717 500.814 235.713 500.178 245.932C499.542 256.151 500.305 267.751 508.024 274.484C518.954 284.019 536.762 278.127 549.647 284.794C561.868 291.118 566.83 307.248 579.422 312.796C589.947 317.433 602.06 313.124 612.706 308.77C623.803 304.23 634.877 299.634 645.927 294.983"
                    stroke="white" stroke-width="1.149" />
                <path
                    d="M434.22 73.5361C422.331 93.0636 414.621 114.845 411.577 137.503C409.711 151.473 410.366 167.495 420.648 177.133C428.355 184.357 439.714 186.155 450.269 185.766C460.824 185.378 471.32 183.159 481.865 183.78C492.409 184.401 503.573 188.563 508.923 197.671C513.986 206.291 512.725 217.028 512.105 227.007C511.485 236.984 512.23 248.311 519.76 254.886C530.423 264.196 547.797 258.443 560.367 264.953C572.29 271.126 577.131 286.877 589.415 292.294C599.683 296.822 611.503 292.615 621.889 288.363C632.715 283.93 643.518 279.443 654.299 274.901"
                    stroke="white" stroke-width="1.149" />
                <path
                    d="M448.782 58.3149C437.226 77.305 429.733 98.4847 426.776 120.517C424.962 134.102 425.599 149.682 435.592 159.054C443.082 166.079 454.122 167.827 464.38 167.449C474.639 167.071 484.839 164.914 495.086 165.517C505.334 166.121 516.185 170.168 521.384 179.026C526.305 187.407 525.079 197.849 524.476 207.551C523.874 217.254 524.598 228.268 531.916 234.661C542.279 243.715 559.165 238.121 571.381 244.451C582.968 250.455 587.673 265.77 599.612 271.038C609.591 275.441 621.078 271.35 631.172 267.215C641.693 262.904 652.193 258.541 662.671 254.125"
                    stroke="white" stroke-width="1.149" />
                <path
                    d="M462.655 42.332C451.423 60.776 444.071 81.578 441.216 102.991C439.448 116.238 440.069 131.432 449.805 140.571C457.102 147.421 467.857 149.126 477.852 148.758C487.847 148.39 497.785 146.285 507.768 146.873C517.752 147.462 528.325 151.409 533.389 160.047C538.183 168.221 536.989 178.403 536.403 187.864C535.815 197.327 536.519 208.067 543.65 214.301C553.747 223.13 570.198 217.674 582.1 223.847C593.39 229.703 597.973 244.638 609.606 249.775C619.328 254.069 630.519 250.079 640.352 246.047C650.603 241.844 660.833 237.589 671.042 233.282"
                    stroke="white" stroke-width="1.149" />
                <path
                    d="M477.216 27.1111C466.318 45.0181 459.184 65.2151 456.413 86.0041C454.698 98.8671 455.3 113.618 464.747 122.492C471.827 129.142 482.264 130.797 491.962 130.44C501.658 130.082 511.302 128.039 520.99 128.611C530.677 129.183 540.936 133.015 545.85 141.401C550.501 149.338 549.342 159.223 548.773 168.41C548.203 177.596 548.887 188.024 555.806 194.077C565.603 202.65 581.565 197.353 593.114 203.346C604.068 209.03 608.516 223.531 619.801 228.519C629.236 232.688 640.095 228.814 649.636 224.899C659.582 220.818 669.508 216.687 679.413 212.506"
                    stroke="white" stroke-width="1.149" />
                <path
                    d="M491.852 11.8901C481.226 29.3282 474.335 48.7817 471.614 69.0201C469.947 81.4951 470.533 95.8051 479.722 104.413C486.61 110.864 496.762 112.47 506.196 112.123C515.63 111.776 525.011 109.794 534.434 110.349C543.857 110.903 553.836 114.621 558.618 122.756C563.143 130.454 562.015 140.043 561.461 148.955C560.907 157.866 561.573 167.981 568.303 173.853C577.833 182.168 593.361 177.031 604.596 182.845C615.251 188.359 619.578 202.425 630.557 207.263C639.735 211.307 650.298 207.55 659.579 203.752C669.255 199.793 678.912 195.786 688.547 191.73"
                    stroke="white" stroke-width="1.149" />
                <path
                    d="M505.725 -3.33203C495.397 13.6376 488.699 32.5642 486.054 52.253C484.433 64.393 485.002 78.315 493.935 86.692C500.63 92.969 510.499 94.53 519.668 94.193C528.838 93.855 537.956 91.927 547.117 92.466C556.277 93.006 565.976 96.622 570.624 104.537C575.022 112.027 573.926 121.358 573.388 130.029C572.849 138.699 573.496 148.542 580.038 154.255C589.303 162.345 604.396 157.346 615.315 163.003C625.673 168.368 629.879 182.054 640.551 186.762C649.472 190.696 659.739 187.04 668.761 183.345C678.167 179.494 687.553 175.595 696.918 171.648"
                    stroke="white" stroke-width="1.149" />
                <path
                    d="M520.287 -18.553C510.292 -2.12092 503.81 16.2045 501.252 35.267C499.683 47.022 500.234 60.503 508.877 68.612C515.357 74.69 524.905 76.202 533.779 75.875C542.651 75.548 551.474 73.681 560.338 74.203C569.202 74.726 578.587 78.227 583.084 85.891C587.34 93.145 586.28 102.179 585.758 110.574C585.237 118.969 585.863 128.499 592.193 134.03C601.158 141.864 615.762 137.024 626.329 142.501C636.351 147.696 640.421 160.948 650.748 165.505C659.379 169.315 669.315 165.775 678.045 162.198C687.145 158.468 696.227 154.693 705.29 150.871"
                    stroke="white" stroke-width="1.149" />
            </g>
        </g>
        <path
            d="M539.018 300.5C575.792 300.5 605.604 270.689 605.604 233.914C605.604 197.14 575.792 167.328 539.018 167.328C502.243 167.328 472.432 197.14 472.432 233.914C472.432 270.689 502.243 300.5 539.018 300.5Z"
            fill="white" />
        <path d="M562.293 220.312L533.051 250.093L515.495 232.227" stroke="#FC4706"
            stroke-width="11.204" stroke-linecap="round" stroke-linejoin="round" />
        <path fill-rule="evenodd" clip-rule="evenodd"
            d="M326.716 214.288H272.16C253.328 214.288 238.062 229.554 238.062 248.386V302.942C238.062 321.773 253.328 337.039 272.16 337.039H326.716C345.548 337.039 360.814 321.773 360.814 302.942V248.386C360.814 229.554 345.548 214.288 326.716 214.288Z"
            fill="#FC4706" />
        <path
            d="M278.979 292.711C288.395 292.711 296.028 285.078 296.028 275.662C296.028 266.246 288.395 258.613 278.979 258.613C269.563 258.613 261.93 266.246 261.93 275.662C261.93 285.078 269.563 292.711 278.979 292.711Z"
            stroke="white" stroke-width="13.783" stroke-linecap="round" stroke-linejoin="round" />
        <path d="M296.027 275.662H333.535V291.006" stroke="white" stroke-width="13.783"
            stroke-linecap="round" stroke-linejoin="round" />
        <path fill-rule="evenodd" clip-rule="evenodd"
            d="M751.32 214.288H805.876C824.707 214.288 839.973 229.554 839.973 248.386V302.942C839.973 321.773 824.707 337.039 805.876 337.039H751.32C732.488 337.039 717.222 321.773 717.222 302.942V248.386C717.222 229.554 732.488 214.288 751.32 214.288Z"
            fill="#FC4706" />
        <path
            d="M799.056 292.711C789.641 292.711 782.007 285.078 782.007 275.662C782.007 266.246 789.641 258.613 799.056 258.613C808.472 258.613 816.105 266.246 816.105 275.662C816.105 285.078 808.472 292.711 799.056 292.711Z"
            stroke="white" stroke-width="13.783" stroke-linecap="round" stroke-linejoin="round" />
        <path d="M782.008 275.662H744.501V291.006" stroke="white" stroke-width="13.783"
            stroke-linecap="round" stroke-linejoin="round" />
        <path
            d="M573.279 531.556C573.279 531.556 568.107 486.996 553.979 468.353C540 449.908 494.646 409.789 476.377 364.635C476.203 364.214 476.181 363.746 476.316 363.31C476.451 362.875 476.733 362.501 477.115 362.252C479.914 360.46 487.181 357.951 498.14 369.859C512.379 385.383 523.588 396.986 523.588 396.986C523.588 396.986 523.06 306.082 524.748 281.438C525.079 276.573 525.891 272.697 527.022 269.567C530.554 259.808 545.063 262.38 545.265 272.759L546.468 333.491C546.468 333.491 549.669 327.362 555.834 327.738C561.665 328.108 568.013 337.466 567.654 346.997C567.654 346.997 571.828 340.418 579.38 343.204C586.931 345.991 589.607 356.899 589.817 362.452C589.817 362.452 592.437 355.313 598.453 355.752C604.469 356.192 610.311 367.467 610.967 371.404C611.622 375.34 622.795 407.035 617.265 459.011L648.672 518.604C648.672 518.604 638.203 541.811 573.279 531.556Z"
            fill="#F8AE9D" />
    </g>
    <path
        d="M444.664 556.728V543.48C444.664 542.776 444.472 542.264 444.088 541.944C443.704 541.56 443.096 541.368 442.264 541.368H424.408V529.368H447.352C452.472 529.368 456.088 530.456 458.2 532.632C460.376 534.808 461.464 537.688 461.464 541.272V558.936C461.464 562.52 460.376 565.4 458.2 567.576C456.088 569.752 452.472 570.84 447.352 570.84H424.408V558.84H442.264C443.096 558.84 443.704 558.68 444.088 558.36C444.472 557.976 444.664 557.432 444.664 556.728ZM418.84 529.368H435.64V591H418.84V529.368ZM481.711 556.44V577.656C481.711 578.36 481.903 578.904 482.287 579.288C482.671 579.608 483.279 579.768 484.111 579.768H486.895V591H480.367C475.247 591 471.599 589.912 469.423 587.736C467.311 585.56 466.255 582.68 466.255 579.096V555C466.255 551.416 467.311 548.536 469.423 546.36C471.599 544.184 475.247 543.096 480.367 543.096H486.799V554.328H484.111C483.279 554.328 482.671 554.52 482.287 554.904C481.903 555.224 481.711 555.736 481.711 556.44ZM490.735 569.208V556.44C490.735 555.736 490.543 555.224 490.159 554.904C489.775 554.52 489.167 554.328 488.335 554.328H486.319V543.096H492.079C497.199 543.096 500.815 544.184 502.927 546.36C505.103 548.536 506.191 551.416 506.191 555V569.208H490.735ZM490.735 577.464V574.776H506.191V579.096C506.191 582.68 505.103 585.56 502.927 587.736C500.815 589.912 497.199 591 492.079 591H486.319V579.768H488.335C489.167 579.768 489.775 579.576 490.159 579.192C490.543 578.744 490.735 578.168 490.735 577.464ZM506.191 562.488V571.32H470.191V562.488H506.191ZM540.243 542.616V556.824H534.771C530.739 556.824 528.723 559 528.723 563.352V565.944H528.147V553.368C528.147 551.192 528.563 549.304 529.395 547.704C530.227 546.104 531.443 544.856 533.043 543.96C534.643 543.064 536.563 542.616 538.803 542.616H540.243ZM528.723 591H512.403V543.096H528.435V554.136L528.723 552.216V591ZM583.823 591H567.503V557.208C567.503 556.504 567.311 555.992 566.927 555.672C566.543 555.288 565.935 555.096 565.103 555.096H563.471C562.639 555.096 561.999 555.32 561.551 555.768C561.103 556.216 560.879 556.952 560.879 557.976V560.568H560.303V551.928C560.303 549.24 561.039 547.096 562.511 545.496C564.047 543.896 566.319 543.096 569.327 543.096H571.055C575.599 543.096 578.863 544.184 580.847 546.36C582.831 548.536 583.823 551.416 583.823 555V591ZM560.879 591H544.559V543.096H560.591V552.216H560.879V591ZM606.767 591H590.447V557.208C590.447 556.504 590.255 555.992 589.871 555.672C589.487 555.288 588.879 555.096 588.047 555.096H586.415C585.583 555.096 584.943 555.32 584.495 555.768C584.047 556.216 583.823 556.952 583.823 557.976V560.568H583.247L582.479 552.216C582.223 549.528 583.023 547.352 584.879 545.688C586.799 543.96 589.263 543.096 592.271 543.096H593.999C598.543 543.096 601.807 544.184 603.791 546.36C605.775 548.536 606.767 551.416 606.767 555V591ZM630.254 591H613.934V543.096H630.254V591ZM613.646 538.296V526.776H630.542V538.296H613.646ZM656.174 533.688V576.888C656.174 577.592 656.366 578.136 656.75 578.52C657.134 578.84 657.742 579 658.574 579H662.126V591H653.966C648.846 591 645.198 589.912 643.022 587.736C640.91 585.56 639.854 582.68 639.854 579.096V533.688H656.174ZM662.222 543.096V555.096H634.574V543.096H662.222Z"
        fill="#232323" />
    <circle cx="75.5" cy="74.5" r="56.5" fill="#FC4706" />
    <path
        d="M55.6409 56.5402C51.9589 53.2079 46.1497 53.4625 43.8319 57.8545C41.9401 61.4392 40.6577 65.3371 40.0596 69.3896C39.0208 76.427 40.0923 83.6144 43.1384 90.043C46.1845 96.4715 51.0685 101.852 57.1727 105.505C63.2769 109.158 70.3273 110.919 77.4321 110.564C84.537 110.21 91.3773 107.757 97.088 103.515C102.799 99.2737 107.123 93.4339 109.515 86.7343C111.907 80.0347 112.258 72.7764 110.525 65.8771C109.527 61.9042 107.863 58.1532 105.624 54.7744C102.881 50.6346 97.0752 50.959 93.7428 54.641V54.641C90.4105 58.323 90.9907 64.036 92.6243 68.7257C92.7995 69.2284 92.9527 69.7401 93.0831 70.2593C93.9498 73.709 93.7742 77.3381 92.5783 80.6879C91.3824 84.0377 89.2201 86.9577 86.3647 89.0785C83.5094 91.1994 80.0892 92.4259 76.5368 92.603C72.9844 92.78 69.4592 91.8997 66.4071 90.0733C63.355 88.2469 60.913 85.5565 59.3899 82.3423C57.8669 79.128 57.3312 75.5343 57.8505 72.0156C57.9287 71.4859 58.0303 70.9616 58.1545 70.4439C59.3137 65.615 59.3229 59.8726 55.6409 56.5402V56.5402Z"
        fill="white" />
    <path
        d="M57.5893 54.5966C54.266 50.9065 54.5349 45.0978 58.9326 42.7908C63.5224 40.3831 68.6108 38.9789 73.8581 38.7184C79.1054 38.4579 84.3079 39.3512 89.1136 41.2925C93.7182 43.1526 94.5611 48.906 91.6196 52.9072V52.9072C88.6781 56.9084 82.9644 57.482 78.0428 56.8189C76.9579 56.6727 75.8558 56.6251 74.7498 56.68C73.6438 56.7349 72.5518 56.8914 71.4868 57.1443C66.6551 58.2917 60.9126 58.2868 57.5893 54.5966V54.5966Z"
        fill="#893405" />
    <defs>
        <linearGradient id="paint0_linear_1092_101" x1="570.334" y1="772.912" x2="562.025"
            y2="-299.428" gradientUnits="userSpaceOnUse">
            <stop stop-color="white" />
            <stop offset="1" stop-color="#EEEEEE" />
        </linearGradient>
        <linearGradient id="paint1_linear_1092_101" x1="825.572" y1="533.191" x2="932.521"
            y2="448.595" gradientUnits="userSpaceOnUse">
            <stop stop-color="white" />
            <stop offset="1" stop-color="#EEEEEE" />
        </linearGradient>
        <linearGradient id="paint2_linear_1092_101" x1="245.16" y1="430.194" x2="92.8093"
            y2="288.64" gradientUnits="userSpaceOnUse">
            <stop stop-color="white" />
            <stop offset="1" stop-color="#EEEEEE" />
        </linearGradient>
        <clipPath id="clip0_1092_101">
            <rect width="900" height="600" fill="white" transform="translate(90 22)" />
        </clipPath>
    </defs>
</svg>
    